HIERARCHY
ROOT Hips
{
	OFFSET 0.000000 0.000000 0.000000
	CHANNELS 6 Xposition Yposition Zposition Zrotation Yrotation Xrotation 
	JOINT LHipJoint
	{
		OFFSET 0.000000 0.000000 0.000000
		CHANNELS 3 Zrotation Yrotation Xrotation
		JOINT LeftUpLeg
		{
			OFFSET 1.363060 -1.794630 0.839290
			CHANNELS 3 Zrotation Yrotation Xrotation
			JOINT LeftLeg
			{
				OFFSET 2.448110 -6.726130 0.000000
				CHANNELS 3 Zrotation Yrotation Xrotation
				JOINT LeftFoot
				{
					OFFSET 2.562200 -7.039590 0.000000
					CHANNELS 3 Zrotation Yrotation Xrotation
					JOINT LeftToeBase
					{
						OFFSET 0.157640 -0.433110 2.322550
						CHANNELS 3 Zrotation Yrotation Xrotation
						End Site
						{
							OFFSET 0.000000 0.000000 0.000000
						}
					}
				}
			}
		}
	}
	JOINT RHipJoint
	{
		OFFSET 0.000000 0.000000 0.000000
		CHANNELS 3 Zrotation Yrotation Xrotation
		JOINT RightUpLeg
		{
			OFFSET -1.305520 -1.794630 0.839290
			CHANNELS 3 Zrotation Yrotation Xrotation
			JOINT RightLeg
			{
				OFFSET -2.542530 -6.985550 0.000000
				CHANNELS 3 Zrotation Yrotation Xrotation
				JOINT RightFoot
				{
					OFFSET -2.568260 -7.056230 0.000000
					CHANNELS 3 Zrotation Yrotation Xrotation
					JOINT RightToeBase
					{
						OFFSET -0.164730 -0.452590 2.363150
						CHANNELS 3 Zrotation Yrotation Xrotation
						End Site
						{
							OFFSET 0.000000 0.000000 0.000000
						}
					}
				}
			}
		}
	}
	JOINT LowerBack
	{
		OFFSET 0.000000 0.000000 0.000000
		CHANNELS 3 Zrotation Yrotation Xrotation
		JOINT Spine
		{
			OFFSET 0.028270 2.035590 -0.193380
			CHANNELS 3 Zrotation Yrotation Xrotation
			JOINT Spine1
			{
				OFFSET 0.056720 2.048850 -0.042750
				CHANNELS 3 Zrotation Yrotation Xrotation
				JOINT Neck
				{
					OFFSET 0.000000 0.000000 0.000000
					CHANNELS 3 Zrotation Yrotation Xrotation
					JOINT Neck1
					{
						OFFSET -0.054170 1.746240 0.172020
						CHANNELS 3 Zrotation Yrotation Xrotation
						JOINT Head
						{
							OFFSET 0.104070 1.761360 -0.123970
							CHANNELS 3 Zrotation Yrotation Xrotation
							End Site
							{
								OFFSET 0.000000 0.000000 0.000000
							}
						}
					}
				}
				JOINT LeftShoulder
				{
					OFFSET 0.000000 0.000000 0.000000
					CHANNELS 3 Zrotation Yrotation Xrotation
					JOINT LeftArm
					{
						OFFSET 3.362410 1.200890 -0.311210
						CHANNELS 3 Zrotation Yrotation Xrotation
						JOINT LeftForeArm
						{
							OFFSET 4.983000 -0.000000 -0.000000
							CHANNELS 3 Zrotation Yrotation Xrotation
							JOINT LeftHand
							{
								OFFSET 3.483560 -0.000000 -0.000000
								CHANNELS 3 Zrotation Yrotation Xrotation
								JOINT LeftFingerBase
								{
									OFFSET 0.000000 0.000000 0.000000
									CHANNELS 3 Zrotation Yrotation Xrotation
									JOINT LeftHandIndex1
									{
										OFFSET 0.715260 -0.000000 -0.000000
										CHANNELS 3 Zrotation Yrotation Xrotation
										End Site
										{
											OFFSET 0.000000 0.000000 0.000000
										}
									}
								}
								JOINT LThumb
								{
									OFFSET 0.000000 0.000000 0.000000
									CHANNELS 3 Zrotation Yrotation Xrotation
									End Site
									{
										OFFSET 0.000000 0.000000 0.000000
									}
								}
							}
						}
					}
				}
				JOINT RightShoulder
				{
					OFFSET 0.000000 0.000000 0.000000
					CHANNELS 3 Zrotation Yrotation Xrotation
					JOINT RightArm
					{
						OFFSET -3.136600 1.374050 -0.404650
						CHANNELS 3 Zrotation Yrotation Xrotation
						JOINT RightForeArm
						{
							OFFSET -5.241900 -0.000000 -0.000000
							CHANNELS 3 Zrotation Yrotation Xrotation
							JOINT RightHand
							{
								OFFSET -3.444170 -0.000000 -0.000000
								CHANNELS 3 Zrotation Yrotation Xrotation
								JOINT RightFingerBase
								{
									OFFSET 0.000000 0.000000 0.000000
									CHANNELS 3 Zrotation Yrotation Xrotation
									JOINT RightHandIndex1
									{
										OFFSET -0.622530 -0.000000 -0.000000
										CHANNELS 3 Zrotation Yrotation Xrotation
										End Site
										{
											OFFSET 0.000000 0.000000 0.000000
										}
									}
								}
								JOINT RThumb
								{
									OFFSET 0.000000 0.000000 0.000000
									CHANNELS 3 Zrotation Yrotation Xrotation
									End Site
									{
										OFFSET 0.000000 0.000000 0.000000
									}
								}
							}
						}
					}
				}
			}
		}
	}
}
MOTION
Frames: 5
Frame Time: 0.008333
-6.593873 17.749864 1.962325 -15.517390 52.908050 -1.042138 -0.598965 2.027886 2.175235 4.609071 9.896308 -14.908542 2.104369 8.937464 26.993878 -4.383806 19.639456 -2.752316 2.470600 -9.784300 -28.281100 5.087954 0.031620 -0.028867 15.623530 20.874108 -25.953877 -2.432919 -9.031766 27.516612 -1.137840 14.122502 4.656543 -0.408500 -4.103200 11.367300 -10.705596 -7.452555 1.110481 -4.516129 -10.030315 5.814230 6.781544 -5.344738 2.517860 3.505373 18.661556 -5.534251 -9.587889 28.307345 18.726789 -1.531900 12.057400 12.059600 0.924267 3.799321 -2.305310 -150.758036 -47.415960 148.361429 15.110674 -24.646298 -3.303611 0.344518 -0.015830 6.231429 15.771135 4.747952 1.304600 -7.125000 0.000000 0.000000 13.417200 -55.160600 176.607800 1.646945 -4.984016 -2.263127 85.925339 28.520587 18.594705 -108.045790 60.018569 -73.004590 0.163419 -0.396595 -35.562372 -62.303205 14.799235 -27.259000 7.125000 0.000000 0.000000 -21.096100 -0.538500 -22.483800 
-6.588570 17.755466 1.999241 -15.219032 52.546848 -0.820001 -0.629598 2.059579 2.196108 4.565182 10.004455 -14.713118 2.109705 8.914744 26.909717 -4.486933 20.096675 -2.304636 2.542800 -9.915200 -28.702700 5.081735 0.016450 -0.042542 15.652106 21.107508 -25.795470 -2.454434 -9.064873 27.625991 -1.140654 14.274744 4.597029 -0.418600 -4.152800 11.507100 -10.784922 -7.565013 1.156289 -4.689812 -10.193782 5.624778 6.796133 -5.416227 2.469036 3.589887 18.847086 -5.173120 -9.862863 28.433504 18.107420 -1.649800 12.149000 11.812800 0.918883 3.783670 -2.235683 -152.432522 -47.504791 149.978083 15.303001 -24.795946 -3.361632 0.340313 -0.016130 6.335812 15.849844 4.286261 1.184100 -7.125000 0.000000 0.000000 13.465900 -55.624500 176.442300 1.662381 -5.019782 -2.301038 85.215598 29.311244 17.978073 -109.363406 59.786592 -74.097493 0.159101 -0.393384 -34.308124 -63.099710 16.404504 -30.399200 7.125000 0.000000 0.000000 -21.050900 2.664200 -23.631800 
-6.586970 17.752365 2.035756 -14.935266 52.238529 -0.632023 -0.650879 2.093436 2.236227 4.609732 9.888666 -14.318447 2.093959 8.882020 26.848221 -4.471295 20.042489 -2.409623 2.374100 -9.605300 -27.707800 5.074328 0.002866 -0.060634 15.697138 21.319243 -25.633339 -2.474572 -9.099550 27.737719 -1.138357 14.341849 4.663095 -0.500500 -4.535500 12.588400 -10.913628 -7.687248 1.288861 -4.861589 -10.378205 5.448629 6.846573 -5.499561 2.382749 3.671081 19.016125 -5.072339 -9.979567 28.584099 17.748450 -1.681200 12.235900 11.687800 0.915968 3.781694 -2.162767 -154.025495 -47.519045 151.338242 15.518622 -24.980897 -3.429792 0.339681 -0.013583 6.612951 15.947914 4.063195 1.128600 -7.125000 0.000000 0.000000 13.418700 -55.851600 176.380600 1.678686 -5.045599 -2.334190 84.506669 30.135985 17.458878 -110.752820 59.534270 -75.262974 0.159063 -0.392388 -33.175272 -63.602987 17.685039 -32.747200 7.125000 0.000000 0.000000 -20.948800 5.100300 -24.351200 
-6.584669 17.749664 2.070170 -14.624887 51.962589 -0.368786 -0.676520 2.120641 2.273399 4.600952 9.810586 -13.994975 2.071292 8.842377 26.760462 -4.453056 19.975149 -2.499681 2.401400 -9.656300 -27.870800 5.063149 -0.000446 -0.074392 15.700691 21.396477 -25.609632 -2.499758 -9.139283 27.871914 -1.139496 14.605806 4.723802 -0.511000 -4.582000 12.720000 -10.952836 -7.824287 1.368744 -5.054496 -10.575322 5.301111 6.829868 -5.592413 2.319697 3.481900 19.180321 -5.273504 -9.867643 28.759948 17.529978 -1.581100 12.311000 11.597500 0.922611 3.796980 -2.089533 -155.675819 -47.603463 153.001419 15.735402 -25.160585 -3.497233 0.347277 -0.014456 6.652998 16.494339 3.705752 1.066300 -7.125000 0.000000 0.000000 12.868800 -56.201200 176.422900 1.701909 -5.057388 -2.363851 83.782176 31.045469 16.895687 -112.313325 59.241811 -76.587279 0.164762 -0.395401 -32.309662 -63.678864 18.585019 -34.056400 7.125000 0.000000 0.000000 -20.731900 6.566800 -24.544400 
-6.581367 17.747963 2.102884 -14.428765 51.655027 -0.151972 -0.699049 2.148009 2.296837 4.592339 9.877325 -13.823738 2.066112 8.814034 26.673349 -4.501232 20.191451 -2.297804 2.549300 -9.926900 -28.740400 5.053204 -0.007580 -0.087001 15.762619 21.523618 -25.606799 -2.524387 -9.168756 27.983792 -1.144183 14.875130 4.614194 -0.420300 -4.161300 11.530800 -10.843391 -7.925174 1.392065 -5.242100 -10.720550 5.134639 6.735032 -5.656692 2.246346 3.215000 19.329048 -5.441709 -9.659091 28.891108 17.280178 -1.459600 12.376600 11.458400 0.928315 3.816811 -2.012056 -157.355989 -47.554614 154.738245 15.942976 -25.331694 -3.561704 0.360304 -0.009714 6.811710 17.143339 3.678316 1.100300 -7.125000 0.000000 0.000000 12.087900 -56.222600 176.638400 1.726582 -5.071927 -2.390134 82.958664 31.973723 16.194041 -113.773025 58.959253 -77.828357 0.168932 -0.392965 -31.132540 -64.188755 18.613078 -34.726700 7.125000 0.000000 0.000000 -20.996600 7.066400 -25.065200 
